/* XPM */
static char *e24046cf89e94524c55b6d76747d012fFoKm4sIAILH1nHPQ[] = {
/* columns rows colors chars-per-pixel */
"62 62 17 1 ",
"  c #B4B261",
". c #A9A75E",
"X c #A8A65E",
"o c #ABA95F",
"O c #B3B160",
"+ c #ACAA5F",
"@ c #B2B060",
"# c #AEAC5F",
"$ c #B0AE60",
"% c #A7A55E",
"& c #B1AF60",
"* c #ADAB5F",
"= c #AAA85E",
"- c #AFAD5F",
"; c #AAA85F",
": c #AFAD60",
"> c white",
/* pixels */
" .XoOXX+@XX#$%X$#XX&*X.@oX.O=X=O.XoOXX+@XX#$%X$#XX&*X.@oX.O=X.",
"...@..o&..+$.X#-.X$*.X&+.X@;..@...@..o&..+$.X#-.X$*.X&+.X@;..O",
".@=X=@.Xo&.X*$.X--.X$*.X&+.X@oX.@=X=@.Xo&.X*$.X--.X$*.X&+.X@o.",
"==@X=o&X.+$X.#-..:*..&o..@==.@.==@X=o&X.+$X.#-..:*..&o..@==.@.",
"OXX+@XX*&X.#:%.:#X.&+X=@oX=@.Xo@XX+@XX*&X.#:%.:#X.&+X=@oX=@.X=",
"X;.&.=;&.=+:..*#..:+=.$o=X&=;.@.;.&.=;&.=+:..*#..:+=.$o=X&=;.@",
".@oX=@;Xo&=%*$.%#:.%:#.X&*XX&+X.@oX=@;Xo&=%*$.%#:.%:#.X&*XX&+X",
"o.&.o=$.;o:.=*#..#+=.$oo.&=o.&.o.&.o=$.;o:.=*#..#+=.$oo.&=o.&.",
"@XX*&X.#$%.-#%=$*%=&o%o&=Xo&.X+&XX*&X.#$%.-#%=$*%=&o%o&=Xo&.X+",
"X+.$.+=$.oo#.=**==#+o.:=o.$.+.&.+.$.+=$.oo#.=**==#+o.:=o.$.+.&",
"X&*X.&+%;&o%+$;%*$=%#-.%$#XX$*XX&*X.&+%;&o%+$;%*$=%#-.%$#XX$*X",
"*.$.+=:.+o#=o+*;=*+o.#;+.:.*.$.*.$.+=:.+o#=o+*;=*+o.#;+.:.*.$X",
"$XX#:%.:#%=$*%;$+%o$o%+$=%*$.X#$XX#:%.:#%=$*%;$+%o$o%+$=%*$.X#",
"X*.-.*=#.+o*=o++o;*o+=#=*.-.*.:.*.-.*=#.+o*=o++o;*o+=#=*.-.*.$",
"X$#X.$*%=$+%o$o%+$;%*$=%#:.X--XX$#X.$*%=$+%o$o%+$;%*$=%#:.X--X",
"-.#.#.#=*=*;+o++o+o*=*=*.#.#.#.#.#.#.#=*=*;+o++o+o*=*=*.#.#.#X",
"#X.$#%.$*%;$+%o$o%*$=%#$.%-:XX:#X.$#%.$*%;$+%o$o%*$=%#$.%-:XX:",
"X:.*.-.*=#=+o*oo+o+=*=*.#.*.:.#.:.*.-.*=#=+o*oo+o+=*=*.#.*.:.#",
"X#$X.--%.:#%=$*%o$o%+$=%*$.X*$XX#$X.--%.:#%=$*%o$o%+$=%*$.X*$X",
"$.*.$.+=-.oo#=o*+o=#o+.-=+.$.*.$.*.$.+=-.oo#=o*+o=#o+.-=+.$.*X",
"*X.&+%=&o%o$o%+$=%#:.%:#.X$#XX&*X.&+%=&o%o$o%+$=%#:.%:#.X$#XX&",
".&.+=$.oo:.o+#==*+;.-oo.$=+.$.+.&.+=$.oo:.o+#==*+;.-oo.$=+.$.+",
"X*&XX*$%.#:%.:#%=$+%;&o%o&=X+&.X*&XX*$%.#:%.:#%=$+%;&o%o&=X+&.",
"@.o.&.oo$.=+-.=#*=.-+=.$=o.&.o.&.o.&.oo$.=+-.=#*=.-+=.$=o.&.oX",
"oX.@oX;&=X+&=%*$.%--.%$*.X&+XX@oX.@oX;&=X+&=%*$.%--.%$*.X&+XX@",
".@.==&.=o$..*-..#*..$+=X&==.@.;.@.==&.=o$..*-..#*..$+=X&==.@.o",
"Xo@XX+&X.#$X.-#X.$*X.&oX=@=X;@.Xo@XX+&X.#$X.-#X.$*X.&oX=@=X;@.",
"O.==@X=o&X.*:X.##..$+..&o..@.=.@.==@X=o&X.*:X.##..$+..&o..@.=X",
"=X.@=Xo@.X+&.X#:.X:#.X&+.X@o..@=X.@=Xo@.X+&.X#:.X:#.X&+.X@o..O",
".@..=@..o&..*:.X-#.X$+.X&o.X@=..@..=@..o&..*:.X-#.X$+.X&o.X@=.",
".=@X.o@X.*$X.#-X.$*X.&+X.@=..@..=@X.o@X.*$X.#-X.$*X.&+X.@=..@.",
"O..o@X.+&X.#$X.:#X.$+X.@o..@..=@..o@X.+&X.#$X.:#X.$+X.@o..@...",
"...@..o&..+$.X#-.X$*.X&+.X@;..@...@..o&..+$.X#-.X$*.X&+.X@;..O",
".@=X=@.Xo&.X*$.X--.X$*.X&+.X@oX.@=X=@.Xo&.X*$.X--.X$*.X&+.X@o.",
"==@X=o&X.+$X.#-..:*..&o..@==.@.==@X=o&X.+$X.#-..:*..&o..@==.@.",
"OXX+@XX*&X.#:%.:#X.&+X=@oX=@.Xo@XX+@XX*&X.#:%.:#X.&+X=@oX=@.X=",
"X;.&.=;&.=+:..*#..:+=.$o=X&=;.@.;.&.=;&.=+:..*#..:+=.$o=X&=;.@",
".@oX=@;Xo&=%*$.%#:.%:#.X&*XX&+X.@oX=@;Xo&=%*$.%#:.%:#.X&*XX&+X",
"o.&.o=$.;o:.=*#..#+=.$oo.&=o.&.o.&.o=$.;o:.=*#..#+=.$oo.&=o.&.",
"@XX*&X.#$%.-#%=$*%=&o%o&=Xo&.X+&XX*&X.#$%.-#%=$*%=&o%o&=Xo&.X+",
"X+.$.+=$.oo#.=**==#+o.:=o.$.+.&.+.$.+=$.oo#.=**==#+o.:=o.$.+.&",
"X&*X.&+%;&o%+$;%*$=%#-.%$#XX$*XX&*X.&+%;&o%+$;%*$=%#-.%$#XX$*X",
"*.$.+=:.+o#=o+*;=*+o.#;+.:.*.$.*.$.+=:.+o#=o+*;=*+o.#;+.:.*.$X",
"$XX#:%.:#%=$*%;$+%o$o%+$=%*$.X#$XX#:%.:#%=$*%;$+%o$o%+$=%*$.X#",
"X*.-.*=#.+o*=o++o;*o+=#=*.-.*.:.*.-.*=#.+o*=o++o;*o+=#=*.-.*.$",
"X$#X.$*%=$+%o$o%+$;%*$=%#:.X--XX$#X.$*%=$+%o$o%+$;%*$=%#:.X--X",
"-.#.#.#=*=*;+o++o+o*=*=*.#.#.#.#.#.#.#=*=*;+o++o+o*=*=*.#.#.#X",
"#X.$#%.$*%;$+%o$o%*$=%#$.%-:XX:#X.$#%.$*%;$+%o$o%*$=%#$.%-:XX:",
"X:.*.-.*=#=+o*oo+o+=*=*.#.*.:.#.:.*.-.*=#=+o*oo+o+=*=*.#.*.:.#",
"X#$X.--%.:#%=$*%o$o%+$=%*$.X*$XX#$X.--%.:#%=$*%o$o%+$=%*$.X*$X",
"$.*.$.+=-.oo#=o*+o=#o+.-=+.$.*.$.*.$.+=-.oo#=o*+o=#o+.-=+.$.*X",
"*X.&+%=&o%o$o%+$=%#:.%:#.X$#XX&*X.&+%=&o%o$o%+$=%#:.%:#.X$#XX&",
".&.+=$.oo:.o+#==*+;.-oo.$=+.$.+.&.+=$.oo:.o+#==*+;.-oo.$=+.$.+",
"X*&XX*$%.#:%.:#%=$+%;&o%o&=X+&.X*&XX*$%.#:%.:#%=$+%;&o%o&=X+&.",
"@.o.&.oo$.=+-.=#*=.-+=.$=o.&.o.&.o.&.oo$.=+-.=#*=.-+=.$=o.&.oX",
"oX.@oX;&=X+&=%*$.%--.%$*.X&+XX@oX.@oX;&=X+&=%*$.%--.%$*.X&+XX@",
".@.==&.=o$..*-..#*..$+=X&==.@.;.@.==&.=o$..*-..#*..$+=X&==.@.o",
"Xo@XX+&X.#$X.-#X.$*X.&oX=@=X;@.Xo@XX+&X.#$X.-#X.$*X.&oX=@=X;@.",
"O.==@X=o&X.*:X.##..$+..&o..@.=.@.==@X=o&X.*:X.##..$+..&o..@.=X",
"=X.@=Xo@.X+&.X#:.X:#.X&+.X@o..@=X.@=Xo@.X+&.X#:.X:#.X&+.X@o..O",
".@..=@..o&..*:.X-#.X$+.X&o.X@=..@..=@..o&..*:.X-#.X$+.X&o.X@=.",
"X=OXX+@XX*&XX-:%X$*XX@+X.O=X.O.X=OXX+@XX*&XX-:%X$*XX@+X.O=X.O."
};
