/* XPM */
static char *_ab6a18e065a4e828d45d032c0c84a11qpZMRhfyyFtDBdir[] = {
/* columns rows colors chars-per-pixel */
"16 16 149 2 ",
"   c None",
".  c #72602F",
"X  c #675528",
"o  c #6E5A2B",
"O  c #6F5B2C",
"+  c #766330",
"@  c #9E8D49",
"#  c #AF9F53",
"$  c #AE9E53",
"%  c #AD9D52",
"&  c #958343",
"*  c #776431",
"=  c #786833",
"-  c #6D592B",
";  c #726131",
":  c #83733C",
">  c #87773E",
",  c #A3934D",
"<  c #988645",
"1  c #7A6633",
"2  c #988745",
"3  c #928142",
"4  c #695729",
"5  c #6D5A2B",
"6  c #504321",
"7  c #44391E",
"8  c #41371D",
"9  c #3F361C",
"0  c #514526",
"q  c #5F512A",
"w  c #948243",
"e  c #998746",
"r  c #74612F",
"t  c #6C592B",
"y  c #463C1D",
"u  c #51441F",
"i  c #5A4B22",
"p  c #605024",
"a  c #655427",
"s  c #6B582A",
"d  c #66542A",
"f  c #60532D",
"g  c #706436",
"h  c #6E5A2C",
"j  c #705B2C",
"k  c #5E4E26",
"l  c #3D351B",
"z  c #5A4C22",
"x  c #645326",
"c  c #725E2E",
"v  c #534929",
"b  c #6F5F31",
"n  c #574825",
"m  c #483D1E",
"M  c #685629",
"N  c #74602F",
"B  c #705C2C",
"V  c #5D502A",
"C  c #64582F",
"Z  c #715E2D",
"A  c #756130",
"S  c #928041",
"D  c #4E4324",
"F  c #574923",
"G  c #6D5C2F",
"H  c #504829",
"J  c #594C29",
"K  c #6B582B",
"L  c #716030",
"P  c #5E532D",
"I  c #4F4628",
"U  c #68562B",
"Y  c #67562B",
"T  c #574D2B",
"R  c #9C8B48",
"E  c #AA9A51",
"W  c #6D5F32",
"Q  c #544824",
"!  c #4E4528",
"~  c #131312",
"^  c #181713",
"/  c #4F4324",
"(  c #1B1915",
")  c #131212",
"_  c #42381F",
"`  c #63562E",
"'  c #715D2D",
"]  c #A4934D",
"[  c #534726",
"{  c #3D341F",
"}  c #1E1B15",
"|  c #252117",
" . c #594B25",
".. c #604F28",
"X. c #1B1914",
"o. c #372F1B",
"O. c #73602F",
"+. c #AC9C52",
"@. c #AD9D53",
"#. c #958545",
"$. c #493E21",
"%. c #5F4F26",
"&. c #665329",
"*. c #69572C",
"=. c #473F25",
"-. c #40361F",
";. c #625127",
":. c #5C4C25",
">. c #635228",
",. c #594F2C",
"<. c #85743C",
"1. c #453A1E",
"2. c #564822",
"3. c #705C2D",
"4. c #6D5A2C",
"5. c #4E4224",
"6. c #4C4023",
"7. c #69592E",
"8. c #5C532E",
"9. c #705F30",
"0. c #978645",
"q. c #7B6733",
"w. c #806F39",
"e. c #554B29",
"r. c #6E5D2E",
"t. c #65562C",
"y. c #5A512D",
"u. c #6E5E2F",
"i. c #968545",
"p. c #796632",
"a. c #65582F",
"s. c #584F2D",
"d. c #544C2B",
"f. c #705D2D",
"g. c #7E6D37",
"h. c #968645",
"j. c #988746",
"k. c #715D2E",
"l. c #706030",
"z. c #715E2E",
"x. c #796834",
"c. c #69582B",
"v. c #88773D",
"b. c #776432",
"n. c #786633",
"m. c #68572A",
"M. c #67562A",
"N. c #796734",
"B. c white",
/* pixels */
". X o O O O + @ # $ % % & * = . ",
"X - O O O - ; : : > , < 1 2 3 4 ",
"o O O 5 6 7 8 9 9 7 0 q w e r 5 ",
"O O t 6 y u i p a s d f g * h O ",
"O j k l z x s h O O O c v b O O ",
"O c n m M N c O O c N B V C Z O ",
"A S D F G H J K L P I U Y T N O ",
"R E W Q ! ~ ^ / T ( ) _ ` C ' O ",
"% % ] [ { } |  ...| X.o.T O.O O ",
"+.@.#.$.%.&.*.=.-.;.:.>.,.L O O ",
"+.@.<.1.2.3.4.5.6.- ' 7.8.9.O O ",
"% 0.q.w.e.C r.t.t.r.C y.u.B O O ",
"i.p.< 2 A a.s.d.d.s.a.O.j O O f.",
"g.h.j.N h k.b l.l.b k.O O O z.x.",
"c.v.b.o O O O O O O O O O z.n.m.",
"  M.N.f.O O O O O O O O f.x.m.  "
};
