/* XPM */
static char *_8711f6bea0c4a04d707b4b978c551b1ejkk7iOlKrxGA4z8[] = {
/* columns rows colors chars-per-pixel */
"32 32 7 1 ",
"  c None",
". c #8A7D42",
"X c #6F5B2C",
"o c #584A21",
"O c #AC9C52",
"+ c #161513",
"@ c white",
/* pixels */
".XXoXXXXXXXXXXXOOOOOOOOOOOXXoXX.",
"XXoXXXXXXXXXXXOOOOOOOOOOOXXXOoXX",
"XoXXXXXXXXXXXOOOOOOOOOOOXXXOOOoX",
"oXXXXXXXXXXXXXXXXXXXOOOXXXOOOXXo",
"XXXXXXXXXooX++++++++XXXXXOOOXXXX",
"XXXXXXXXo+++oooooooo+++XOOOXXXXX",
"XXXXXXXo+oooooooooXXXX.+XOXXXXXX",
"XXXXXXo+oooooooXXXXXXXX.+.XXXXXX",
"XXXXXo+oooooXXXXXXXXXXXX.+.XXXXX",
"XXXXXo+oooXXXXXXXXXXXXXXX+.XXXXX",
"XXXXXX+ooXXXXXXXXXXXXXXXX+.XXXXX",
"XXXXX+ooXXXXXXXXXXXXXXXXX.+.XXXX",
"XXXOX+ooXX...XXXXXX...XXXX+.XXXX",
"XXOOX+oXX.+++XXXX..+++XXXX+.XXXX",
"XOOOX+oX.++++++X.++++++XX.+.XXXX",
"OOOOOX+o.++++++X.++++++o.+.XXXXX",
"OOOOOOX+X+++++oXXX+++++o+.XXXXXX",
"OOOOOOX+X+++++oXXX+++++X+.XXXXXX",
"OOOOOOX+XXXXXX.++XXooooX+.XXXXXX",
"OOOOOX+ooXXXXX.++XXXXXXX.+.XXXXX",
"OOOOOX+ooXXXXX++++XXXXXX.+.XXXXX",
"OOOOOXX+ooXXXXXXXXXXXXX.+.XXXXXX",
"OOOOXXXX++.XXX.XX.XXX.++.XXXXXXX",
"OOOXXXOOX.+.XX+XX+XX.+..XXXXXXXX",
"OOXXXOOOXX.+..+..+..+.XXXXXXXXXX",
"OXXXOOOXXXX.++.++.++.XXXXXXXXXXX",
".XXOOOXXXXXX..X..X..XXXXXXXXXXX.",
"X.OOOXXXXXXXXXXXXXXXXXXXXXXXXX.X",
"XX.OXXXXXXXXXXXXXXXXXXXXXXXXX.XX",
"oXX.XXXXXXXXXXXXXXXXXXXXXXXX.XXo",
"+oXX.XXXXXXXXXXXXXXXXXXXXXX.XXo+",
" +oXX.XXXXXXXXXXXXXXXXXXXX.XXo+ "
};
